<?xml version="1.0" standalone="yes"?>
<svg xmlns="http://www.w3.org/2000/svg" width="400" height="400">
<path style="fill:#ffffff; stroke:none;" d="M0 0L0 400L400 400L400 0L0 0z"/>
<path style="fill:#d4716d; stroke:none;" d="M194 28C194.545 29.6352 194.365 29.455 196 30L196 28L194 28z"/>
<path style="fill:#c6423c; stroke:none;" d="M196 28C202.555 31.781 208.856 35.7418 214.961 40.2909C219.267 43.5002 222.579 46.9504 228 48C220.53 39.5835 207.508 28.9475 196 28z"/>
<path style="fill:#e5aba9; stroke:none;" d="M200 28L201 29L200 28M190 29L191 30L190 29z"/>
<path style="fill:#c6423c; stroke:none;" d="M167 48C177.577 45.5146 185.616 35.2295 195 30C191.559 28.8835 188.922 30.7168 186.015 32.6744C179.684 36.9371 171.837 42.1441 167 48z"/>
<path style="fill:#f0cfcd; stroke:none;" d="M196 29C197.506 29.683 198.315 29.8259 200 30C198.494 29.317 197.685 29.1741 196 29z"/>
<path style="fill:#d77d79; stroke:none;" d="M189 30L190 31L189 30z"/>
<path style="fill:#e29f9c; stroke:none;" d="M193 30L194 31L193 30z"/>
<path style="fill:#db8985; stroke:none;" d="M201 30L202 31L201 30z"/>
<path style="fill:#e29f9c; stroke:none;" d="M205 30L206 31L205 30z"/>
<path style="fill:#edc3c1; stroke:none;" d="M202 31L203 32L202 31z"/>
<path style="fill:#df9591; stroke:none;" d="M186 32L187 33L186 32z"/>
<path style="fill:#e29f9c; stroke:none;" d="M190 32L191 33L190 32z"/>
<path style="fill:#e9b7b5; stroke:none;" d="M208 32L209 33L208 32z"/>
<path style="fill:#e5aba9; stroke:none;" d="M205 33L206 34L205 33z"/>
<path style="fill:#d77d79; stroke:none;" d="M209 33L210 34L209 33z"/>
<path style="fill:#e5aba9; stroke:none;" d="M183 34L184 35L183 34z"/>
<path style="fill:#d77d79; stroke:none;" d="M187 34L188 35L187 34z"/>
<path style="fill:#edc3c1; stroke:none;" d="M186 35L187 36L186 35z"/>
<path style="fill:#df9591; stroke:none;" d="M208 35L209 36L208 35M212 35L213 36L212 35z"/>
<path style="fill:#db8985; stroke:none;" d="M180 37L181 38L180 37z"/>
<path style="fill:#e29f9c; stroke:none;" d="M183 37L184 38L183 37z"/>
<path style="fill:#d77d79; stroke:none;" d="M211 37L212 38L211 37z"/>
<path style="fill:#e5aba9; stroke:none;" d="M215 37L216 38L215 37z"/>
<path style="fill:#e9b7b5; stroke:none;" d="M212 38L213 39L212 38z"/>
<path style="fill:#d77d79; stroke:none;" d="M216 38L217 39L216 38z"/>
<path style="fill:#e29f9c; stroke:none;" d="M177 39L178 40L177 39z"/>
<path style="fill:#edc3c1; stroke:none;" d="M218 39L219 40L218 39M180 40L181 41L180 40z"/>
<path style="fill:#e29f9c; stroke:none;" d="M215 40L216 41L215 40z"/>
<path style="fill:#e5aba9; stroke:none;" d="M174 41L175 42L174 41z"/>
<path style="fill:#d77d79; stroke:none;" d="M178 41L179 42L178 41M173 42L174 43L173 42z"/>
<path style="fill:#e5aba9; stroke:none;" d="M177 42L178 43L177 42z"/>
<path style="fill:#db8985; stroke:none;" d="M218 42L219 43L218 42z"/>
<path style="fill:#e5aba9; stroke:none;" d="M221 42L222 43L221 42z"/>
<path style="fill:#df9591; stroke:none;" d="M170 44L171 45L170 44z"/>
<path style="fill:#e29f9c; stroke:none;" d="M174 44L175 45L174 44z"/>
<path style="fill:#edc3c1; stroke:none;" d="M224 44L225 45L224 44z"/>
<path style="fill:#e29f9c; stroke:none;" d="M221 45L222 46L221 45z"/>
<path style="fill:#db8985; stroke:none;" d="M225 45L226 46L225 45z"/>
<path style="fill:#e5aba9; stroke:none;" d="M167 46L168 47L167 46z"/>
<path style="fill:#d77d79; stroke:none;" d="M171 46L172 47L171 46z"/>
<path style="fill:#e5aba9; stroke:none;" d="M166 47L167 48L166 47z"/>
<path style="fill:#edc3c1; stroke:none;" d="M170 47L171 48L170 47z"/>
<path style="fill:#df9591; stroke:none;" d="M224 47L225 48L224 47z"/>
<path style="fill:#f0c8c6; stroke:none;" d="M276 48C277.506 48.683 278.315 48.8259 280 49C278.494 48.317 277.685 48.1741 276 48M265 49C266.248 49.6848 266.548 49.7488 268 50C266.752 49.3152 266.452 49.2512 265 49z"/>
<path style="fill:#e1918e; stroke:none;" d="M268 49C269.248 49.6848 269.548 49.7488 271 50C269.752 49.3152 269.452 49.2512 268 49z"/>
<path style="fill:#d25c58; stroke:none;" d="M271 49C272.248 49.6848 272.548 49.7488 274 50C272.752 49.3152 272.452 49.2512 271 49z"/>
<path style="fill:#c42620; stroke:none;" d="M246 52C248.37 56.207 253.026 58.2248 257 60.831C262.902 64.7016 270.01 69.1008 277 70.6096C282.68 71.8356 289.208 71 295 71C292.498 64.9899 289.175 54.6705 283.787 50.7423C280.007 47.9858 275.23 49.4209 271 49.8302C262.749 50.6287 254.283 51.829 246 52z"/>
<path style="fill:#e8acaa; stroke:none;" d="M282 49L283 50L282 49z"/>
<path style="fill:#f5d9d6; stroke:none;" d="M116 50C117.248 50.6848 117.548 50.7488 119 51C117.752 50.3152 117.452 50.2512 116 50z"/>
<path style="fill:#f0c8c6; stroke:none;" d="M255.667 50.3333C255.222 50.7776 256.278 50.7222 256.333 50.6667C256.778 50.2221 255.722 50.2778 255.667 50.3333z"/>
<path style="fill:#e1918e; stroke:none;" d="M257 50C258.248 50.6848 258.548 50.7488 260 51C258.752 50.3152 258.452 50.2512 257 50z"/>
<path style="fill:#d25c58; stroke:none;" d="M260 50C261.248 50.6848 261.548 50.7488 263 51C261.752 50.3152 261.452 50.2512 260 50z"/>
<path style="fill:#ebb4ae; stroke:none;" d="M113 51L114 52L113 51z"/>
<path style="fill:#d96c5f; stroke:none;" d="M102 71C108.426 71 115.682 71.9449 122 70.7253C127.31 69.7004 133.325 66.2452 138 63.571C142.175 61.1828 147.401 58.7293 149 54C140.704 53.8287 132.262 52.6565 124 51.831C119.385 51.3699 115.073 50.2374 111.105 53.4337C105.964 57.575 104.57 65.213 102 71z"/>
<path style="fill:#e29187; stroke:none;" d="M121 51C122.248 51.6848 122.549 51.7488 124 52C122.752 51.3152 122.452 51.2512 121 51z"/>
<path style="fill:#f5d9d6; stroke:none;" d="M124 51C125.506 51.683 126.315 51.8259 128 52C126.494 51.317 125.685 51.1741 124 51z"/>
<path style="fill:#e1918e; stroke:none;" d="M247 51C248.248 51.6848 248.549 51.7488 250 52C248.752 51.3152 248.452 51.2512 247 51z"/>
<path style="fill:#d25c58; stroke:none;" d="M250 51C251.248 51.6848 251.549 51.7488 253 52C251.752 51.3152 251.452 51.2512 250 51z"/>
<path style="fill:#ebb4ae; stroke:none;" d="M111 52L112 53L111 52z"/>
<path style="fill:#e29187; stroke:none;" d="M131 52C132.248 52.6848 132.548 52.7488 134 53C132.752 52.3152 132.452 52.2512 131 52z"/>
<path style="fill:#ebb4ae; stroke:none;" d="M134.667 52.3333C134.222 52.7779 135.278 52.7221 135.333 52.6667C135.778 52.2224 134.722 52.2777 134.667 52.3333z"/>
<path style="fill:#f5d9d6; stroke:none;" d="M136 52C137.248 52.6848 137.548 52.7488 139 53C137.752 52.3152 137.452 52.2512 136 52z"/>
<path style="fill:#e7a39b; stroke:none;" d="M110 53L111 54L110 53z"/>
<path style="fill:#ebb4ae; stroke:none;" d="M142 53C143.506 53.683 144.315 53.8259 146 54C144.494 53.317 143.685 53.1741 142 53z"/>
<path style="fill:#f5d9d6; stroke:none;" d="M146.667 53.3333C146.222 53.7779 147.278 53.7221 147.333 53.6667C147.778 53.2223 146.722 53.2778 146.667 53.3333z"/>
<path style="fill:#d25c58; stroke:none;" d="M286 53L287 54L286 53z"/>
<path style="fill:#e7a39b; stroke:none;" d="M109 54L110 55L109 54z"/>
<path style="fill:#f5d9d6; stroke:none;" d="M149.333 54.6667C149.278 54.7221 149.222 55.7779 149.667 55.3333C149.722 55.2777 149.778 54.2223 149.333 54.6667z"/>
<path style="fill:#e8acaa; stroke:none;" d="M246 54L247 55L246 54z"/>
<path style="fill:#ecbab8; stroke:none;" d="M287 54L288 55L287 54z"/>
<path style="fill:#f0c7c2; stroke:none;" d="M108 55L109 56L108 55z"/>
<path style="fill:#de8582; stroke:none;" d="M248 55L249 56L248 55z"/>
<path style="fill:#d25c58; stroke:none;" d="M287 55L288 56L287 55M250 56L251 57L250 56z"/>
<path style="fill:#f0c8c6; stroke:none;" d="M288 56L289 57L288 56z"/>
<path style="fill:#f0c7c2; stroke:none;" d="M107 57L108 58L107 57M147 57L148 58L147 57z"/>
<path style="fill:#ecbab8; stroke:none;" d="M251 57L252 58L251 57z"/>
<path style="fill:#d66a66; stroke:none;" d="M288 57L289 58L288 57z"/>
<path style="fill:#ebb4ae; stroke:none;" d="M145 58L146 59L145 58z"/>
<path style="fill:#e1918e; stroke:none;" d="M253 58L254 59L253 58z"/>
<path style="fill:#f0c7c2; stroke:none;" d="M106 59L107 60L106 59z"/>
<path style="fill:#da7874; stroke:none;" d="M255 59L256 60L255 59M289 59L290 60L289 59z"/>
<path style="fill:#f0c8c6; stroke:none;" d="M256 60L257 61L256 60z"/>
<path style="fill:#f0c7c2; stroke:none;" d="M141 61L142 62L141 61z"/>
<path style="fill:#e8acaa; stroke:none;" d="M257 61L258 62L257 61z"/>
<path style="fill:#e1918e; stroke:none;" d="M290 61L291 62L290 61z"/>
<path style="fill:#e9aca5; stroke:none;" d="M139 62L140 63L139 62z"/>
<path style="fill:#e1918e; stroke:none;" d="M259 62L260 63L259 62z"/>
<path style="fill:#d66a66; stroke:none;" d="M261 63L262 64L261 63z"/>
<path style="fill:#e49f9c; stroke:none;" d="M291 63L292 64L291 63z"/>
<path style="fill:#f0c8c6; stroke:none;" d="M262 64L263 65L262 64z"/>
<path style="fill:#eebeb8; stroke:none;" d="M134 65L135 66L134 65z"/>
<path style="fill:#e49f9c; stroke:none;" d="M264 65L265 66L264 65z"/>
<path style="fill:#e8acaa; stroke:none;" d="M292 65L293 66L292 65z"/>
<path style="fill:#e9aca5; stroke:none;" d="M104 66L105 67L104 66M132 66L133 67L132 66z"/>
<path style="fill:#de8582; stroke:none;" d="M266 66L267 67L266 66z"/>
<path style="fill:#ebb4ae; stroke:none;" d="M103 67L104 68L103 67z"/>
<path style="fill:#ecbab8; stroke:none;" d="M269 67L270 68L269 67z"/>
<path style="fill:#d25c58; stroke:none;" d="M293 67L294 68L293 67z"/>
<path style="fill:#ebb4ae; stroke:none;" d="M127 68L128 69L127 68z"/>
<path style="fill:#e1918e; stroke:none;" d="M271 68L272 69L271 68z"/>
<path style="fill:#f0c8c6; stroke:none;" d="M294 68L295 69L294 68z"/>
<path style="fill:#f0c7c2; stroke:none;" d="M102 69L103 70L102 69z"/>
<path style="fill:#e7a39b; stroke:none;" d="M125 69L126 70L125 69z"/>
<path style="fill:#da7874; stroke:none;" d="M273 69L274 70L273 69M294 69L295 70L294 69z"/>
<path style="fill:#f0c8c6; stroke:none;" d="M274 70L275 71L274 70z"/>
<path style="fill:#d25c58; stroke:none;" d="M275 70L276 71L275 70z"/>
<path style="fill:#dd5352; stroke:none;" d="M71 71L71 78L78 78L78 71L71 71z"/>
<path style="fill:#b5151c; stroke:none;" d="M78 71L78 78L109 78L109 109L116 109L116 71L78 71z"/>
<path style="fill:#e29187; stroke:none;" d="M116 71C118.332 71.9845 120.457 71.9813 123 72C120.668 71.0155 118.543 71.0187 116 71z"/>
<path style="fill:#f0c7c2; stroke:none;" d="M123 71L124 72L123 71z"/>
<path style="fill:#b5151c; stroke:none;" d="M127 71L127 78L134 78L134 84L140 84L140 103L134 103L134 97L121 97L121 103L134 103L134 116L127 116L127 109L121 109L121 121L127 121L127 127L134 127L134 134L140 134L140 121L153 121L153 127L146 127L146 146L159 146L159 140L165 140L165 127L172 127L172 134L177 134L177 127L183 127L183 121L177 121L177 103L183 103L183 116L190 116L190 134L209 134L209 146L215 146L215 159L202 159L202 153L190 153L190 146L196 146L196 140L183 140L183 146L177 146L177 140L172 140L172 153L190 153L190 159L177 159L177 172L183 172L183 165L190 165L190 172L196 172L196 177L190 177L190 183L196 183L196 196L202 196L202 202L215 202L215 190L228 190L228 183L239 183L239 177L246 177L246 190L252 190L252 196L239 196L239 190L233 190L233 209L239 209L239 202L246 202L246 209L258 209L258 215L265 215L265 221L277 221L277 228L258 228L258 221L252 221L252 228L246 228L246 215L239 215L239 221L233 221L233 215L228 215L228 196L221 196L221 209L215 209L215 215L221 215L221 221L228 221L228 228L233 228L233 233L258 233L258 246L265 246L265 239L271 239L271 233L277 233L277 228L284 228L284 221L289 221L289 215L265 215L265 209L258 209L258 202L252 202L252 196L265 196L265 190L271 190L271 183L284 183L284 190L277 190L277 196L284 196L284 202L271 202L271 209L289 209L289 202L295 202L295 190L302 190L302 183L308 183L308 190L314 190L314 183L321 183L321 177L314 177L314 183L308 183L308 177L302 177L302 172L295 172L295 165L308 165L308 159L321 159L321 165L314 165L314 172L321 172L321 165L327 165L327 134L321 134L321 127L308 127L308 140L321 140L321 146L302 146L302 159L284 159L284 172L295 172L295 177L289 177L289 183L284 183L284 177L265 177L265 165L277 165L277 140L289 140L289 134L295 134L295 140L302 140L302 134L295 134L295 127L302 127L302 121L295 121L295 127L289 127L289 121L265 121L265 109L271 109L271 116L277 116L277 97L271 97L271 90L265 90L265 103L258 103L258 97L239 97L239 103L258 103L258 116L252 116L252 109L246 109L246 116L252 116L252 121L239 121L239 127L233 127L233 121L228 121L228 109L233 109L233 116L239 116L239 109L233 109L233 97L228 97L228 90L239 90L239 84L246 84L246 71L233 71L233 84L228 84L228 90L221 90L221 84L215 84L215 78L209 78L209 84L196 84L196 90L177 90L177 103L172 103L172 84L165 84L165 90L159 90L159 97L165 97L165 103L146 103L146 84L140 84L140 78L146 78L146 71L127 71M153 71L153 84L159 84L159 78L172 78L172 71L153 71M183 71L183 78L177 78L177 84L190 84L190 78L196 78L196 71L183 71M252 71L252 78L258 78L258 84L252 84L252 90L258 90L258 84L265 84L265 78L258 78L258 71L252 71z"/>
<path style="fill:#d25c58; stroke:none;" d="M276 71C278.613 72.0977 281.164 71.9928 284 72C281.387 70.9023 278.836 71.0072 276 71z"/>
<path style="fill:#b5151c; stroke:none;" d="M284 71L284 116L327 116L327 71L284 71z"/>
<path style="fill:#eb5f5b; stroke:none;" d="M71 78L71 116L109 116L109 109L78 109L78 78L71 78z"/>
<path style="fill:#ffffff; stroke:none;" d="M78 78L78 109L109 109L109 78L78 78M289 78L289 109L321 109L321 78L289 78z"/>
<path style="fill:#d34041; stroke:none;" d="M84 84L84 90L90 90L90 84L84 84z"/>
<path style="fill:#b5151c; stroke:none;" d="M90 84L90 90L97 90L97 97L103 97L103 84L90 84M295 84L295 103L314 103L314 84L295 84z"/>
<path style="fill:#eb5f5b; stroke:none;" d="M84 90L84 103L97 103L97 97L90 97L90 90L84 90z"/>
<path style="fill:#d34140; stroke:none;" d="M90 90L90 97L97 97L97 90L90 90z"/>
<path style="fill:#ffffff; stroke:none;" d="M196 90L196 103L202 103L202 121L196 121L196 127L202 127L202 121L209 121L209 127L215 127L215 146L233 146L233 153L239 153L239 159L215 159L215 165L209 165L209 172L215 172L215 177L221 177L221 183L228 183L228 177L221 177L221 172L215 172L215 165L228 165L228 172L233 172L233 177L239 177L239 172L246 172L246 177L252 177L252 190L258 190L258 177L252 177L252 172L258 172L258 165L265 165L265 159L271 159L271 153L265 153L265 146L271 146L271 140L277 140L277 134L265 134L265 146L258 146L258 140L252 140L252 146L246 146L246 153L239 153L239 140L246 140L246 127L239 127L239 140L233 140L233 134L228 134L228 140L221 140L221 121L215 121L215 116L221 116L221 109L228 109L228 97L221 97L221 90L215 90L215 103L202 103L202 90L196 90z"/>
<path style="fill:#d23f3f; stroke:none;" d="M97 97L97 103L103 103L103 97L97 97z"/>
<path style="fill:#e9b5af; stroke:none;" d="M327 100L328 101L327 100z"/>
<path style="fill:#d46e62; stroke:none;" d="M327 101C330.946 106.972 339.986 106.475 344.566 112.108C347.891 116.197 346.853 121.208 346.285 126C345.419 133.317 344.925 140.678 344 148C347.852 144.686 346.729 137.698 347.285 133C347.984 127.099 350.505 118.73 348.258 113.015C345.516 106.044 333.569 102.892 327 101z"/>
<path style="fill:#e9b5af; stroke:none;" d="M329 101L330 102L329 101z"/>
<path style="fill:#e4a49d; stroke:none;" d="M331 102L332 103L331 102z"/>
<path style="fill:#eecbc9; stroke:none;" d="M70 103L71 104L70 103z"/>
<path style="fill:#ffffff; stroke:none;" d="M140 103L140 116L134 116L134 121L140 121L140 116L146 116L146 103L140 103M165 103L165 116L159 116L159 109L153 109L153 121L159 121L159 127L165 127L165 116L172 116L172 103L165 103M177 103L177 121L183 121L183 127L177 127L177 134L172 134L172 127L165 127L165 140L159 140L159 146L146 146L146 127L153 127L153 121L140 121L140 134L134 134L134 127L127 127L127 134L121 134L121 140L109 140L109 146L116 146L116 153L109 153L109 159L121 159L121 146L127 146L127 159L134 159L134 146L127 146L127 140L140 140L140 153L165 153L165 159L140 159L140 165L146 165L146 172L140 172L140 177L134 177L134 165L109 165L109 172L103 172L103 165L97 165L97 177L103 177L103 190L109 190L109 196L116 196L116 202L103 202L103 196L97 196L97 183L90 183L90 196L97 196L97 202L84 202L84 209L90 209L90 215L97 215L97 233L116 233L116 239L103 239L103 252L109 252L109 258L116 258L116 252L109 252L109 246L127 246L127 252L134 252L134 246L127 246L127 233L121 233L121 228L134 228L134 233L153 233L153 246L146 246L146 252L140 252L140 258L134 258L134 265L127 265L127 271L134 271L134 277L127 277L127 284L134 284L134 289L140 289L140 271L153 271L153 265L140 265L140 258L159 258L159 271L165 271L165 258L159 258L159 233L153 233L153 221L159 221L159 228L177 228L177 233L183 233L183 246L172 246L172 233L165 233L165 246L172 246L172 265L177 265L177 252L183 252L183 246L202 246L202 258L196 258L196 252L190 252L190 265L183 265L183 271L190 271L190 284L196 284L196 289L190 289L190 295L183 295L183 284L172 284L172 289L177 289L177 295L183 295L183 302L190 302L190 295L196 295L196 289L209 289L209 295L215 295L215 289L209 289L209 284L196 284L196 265L202 265L202 258L209 258L209 252L215 252L215 271L209 271L209 277L221 277L221 271L228 271L228 258L233 258L233 265L239 265L239 277L271 277L271 271L284 271L284 265L277 265L277 258L271 258L271 271L252 271L252 265L265 265L265 252L258 252L258 233L239 233L239 239L228 239L228 246L221 246L221 252L215 252L215 239L209 239L209 246L202 246L202 228L196 228L196 221L209 221L209 215L196 215L196 202L202 202L202 209L221 209L221 196L228 196L228 215L233 215L233 221L239 221L239 215L246 215L246 228L252 228L252 221L258 221L258 228L277 228L277 221L265 221L265 215L258 215L258 209L246 209L246 202L239 202L239 209L233 209L233 190L239 190L239 196L252 196L252 190L246 190L246 177L239 177L239 183L228 183L228 190L215 190L215 202L202 202L202 196L196 196L196 202L190 202L190 209L183 209L183 196L190 196L190 190L196 190L196 183L190 183L190 177L196 177L196 172L190 172L190 165L183 165L183 172L177 172L177 159L190 159L190 153L172 153L172 140L177 140L177 146L183 146L183 140L196 140L196 146L190 146L190 153L202 153L202 159L215 159L215 146L209 146L209 134L190 134L190 116L183 116L183 103L177 103z"/>
<path style="fill:#e4a49d; stroke:none;" d="M328 103L329 104L328 103z"/>
<path style="fill:#e6b1ae; stroke:none;" d="M68 104L69 105L68 104z"/>
<path style="fill:#bd332a; stroke:none;" d="M51 151C55.2206 140.942 46.0463 127.828 51.0278 118.004C54.4708 111.213 64.6306 108.34 71 105C67.4049 104.256 64.2686 106.221 61 107.694C56.8739 109.554 52.3528 111.063 49.7423 115.043C47.1632 118.976 48.2004 123.657 48.7145 128C49.6199 135.648 50.0331 143.349 51 151z"/>
<path style="fill:#e9b5af; stroke:none;" d="M330 104L331 105L330 104z"/>
<path style="fill:#dd9893; stroke:none;" d="M65 105L66 106L65 105z"/>
<path style="fill:#e6b1ae; stroke:none;" d="M70 105L71 106L70 105z"/>
<path style="fill:#eec8c3; stroke:none;" d="M333 105L334 106L333 105z"/>
<path style="fill:#e9b5af; stroke:none;" d="M339 105L340 106L339 105z"/>
<path style="fill:#d5807a; stroke:none;" d="M63 106L64 107L63 106z"/>
<path style="fill:#cd665f; stroke:none;" d="M67 106L68 107L67 106z"/>
<path style="fill:#eecbc9; stroke:none;" d="M68 106L69 107L68 106z"/>
<path style="fill:#e9b5af; stroke:none;" d="M341 106L342 107L341 106z"/>
<path style="fill:#d5807a; stroke:none;" d="M61 107L62 108L61 107M66 107L67 108L66 107z"/>
<path style="fill:#e6ada7; stroke:none;" d="M343 107L344 108L343 107z"/>
<path style="fill:#eecbc9; stroke:none;" d="M58 108L59 109L58 108z"/>
<path style="fill:#cd665f; stroke:none;" d="M59 108L60 109L59 108z"/>
<path style="fill:#d5807a; stroke:none;" d="M64 108L65 109L64 108z"/>
<path style="fill:#e4a49d; stroke:none;" d="M340 108L341 109L340 108z"/>
<path style="fill:#e6b1ae; stroke:none;" d="M56 109L57 110L56 109z"/>
<path style="fill:#dd9893; stroke:none;" d="M62 109L63 110L62 109z"/>
<path style="fill:#d03a3b; stroke:none;" d="M109 109L109 116L116 116L116 109L109 109z"/>
<path style="fill:#ffffff; stroke:none;" d="M190 109L190 116L196 116L196 109L190 109z"/>
<path style="fill:#b5151c; stroke:none;" d="M209 109L209 116L215 116L215 109L209 109z"/>
<path style="fill:#e4a49d; stroke:none;" d="M342 109L343 110L342 109z"/>
<path style="fill:#e1a5a1; stroke:none;" d="M54 110L55 111L54 110z"/>
<path style="fill:#e6b1ae; stroke:none;" d="M60 110L61 111L60 110z"/>
<path style="fill:#eabebb; stroke:none;" d="M52 111L53 112L52 111z"/>
<path style="fill:#cd665f; stroke:none;" d="M57 111L58 112L57 111z"/>
<path style="fill:#e6b1ae; stroke:none;" d="M58 111L59 112L58 111z"/>
<path style="fill:#d5807a; stroke:none;" d="M51 112L52 113L51 112z"/>
<path style="fill:#cd665f; stroke:none;" d="M55 112L56 113L55 112z"/>
<path style="fill:#eecbc9; stroke:none;" d="M56 112L57 113L56 112z"/>
<path style="fill:#e9b5af; stroke:none;" d="M345 112L346 113L345 112z"/>
<path style="fill:#d5807a; stroke:none;" d="M50 113L51 114L50 113z"/>
<path style="fill:#eecbc9; stroke:none;" d="M54 113L55 114L54 113z"/>
<path style="fill:#eabebb; stroke:none;" d="M49 114L50 115L49 114z"/>
<path style="fill:#f4dad7; stroke:none;" d="M346 114L346 117C346.696 115.446 346.696 115.554 346 114z"/>
<path style="fill:#e1a5a1; stroke:none;" d="M48 116L49 117L48 116z"/>
<path style="fill:#f4dad7; stroke:none;" d="M349 116L349 119C349.696 117.446 349.696 117.554 349 116z"/>
<path style="fill:#d5807a; stroke:none;" d="M50 117L51 118L50 117z"/>
<path style="fill:#eabebb; stroke:none;" d="M50 118L51 119L50 118z"/>
<path style="fill:#f4dad7; stroke:none;" d="M346 118L346 121C346.696 119.446 346.696 119.554 346 118z"/>
<path style="fill:#eb5f5b; stroke:none;" d="M84 121L84 134L78 134L78 127L71 127L71 140L97 140L97 134L90 134L90 127L97 127L97 121L84 121M109 121L109 127L121 127L121 134L127 134L127 127L121 127L121 121L109 121z"/>
<path style="fill:#cd3738; stroke:none;" d="M121 121L121 127L127 127L127 121L121 121z"/>
<path style="fill:#ffffff; stroke:none;" d="M172 121L172 127L177 127L177 121L172 121M258 121L258 127L265 127L265 121L258 121z"/>
<path style="fill:#e9b5af; stroke:none;" d="M346 121L346 125C346.71 123.24 346.71 122.759 346 121z"/>
<path style="fill:#de9289; stroke:none;" d="M348.333 122.667C348.278 122.722 348.222 123.778 348.667 123.333C348.722 123.278 348.778 122.222 348.333 122.667z"/>
<path style="fill:#eecbc9; stroke:none;" d="M50.3333 123.667C50.2778 123.722 50.2222 124.778 50.6667 124.333C50.7222 124.278 50.7777 123.222 50.3333 123.667z"/>
<path style="fill:#ecbfb9; stroke:none;" d="M348.333 124.667C348.278 124.722 348.222 125.778 348.667 125.333C348.722 125.278 348.778 124.222 348.333 124.667z"/>
<path style="fill:#dd9893; stroke:none;" d="M50 125L50 128C50.6961 126.446 50.6961 126.554 50 125z"/>
<path style="fill:#cd665f; stroke:none;" d="M48.3333 126.667C48.2778 126.722 48.2222 127.778 48.6667 127.333C48.7222 127.278 48.7778 126.222 48.3333 126.667z"/>
<path style="fill:#f4dad7; stroke:none;" d="M348 126L348 129C348.696 127.446 348.696 127.554 348 126z"/>
<path style="fill:#ffffff; stroke:none;" d="M284 127L284 134L289 134L289 127L284 127z"/>
<path style="fill:#dd9893; stroke:none;" d="M48 128L48 131C48.6961 129.446 48.6961 129.554 48 128z"/>
<path style="fill:#cd665f; stroke:none;" d="M50.3333 128.667C50.2778 128.722 50.2222 129.778 50.6667 129.333C50.7223 129.278 50.7778 128.222 50.3333 128.667z"/>
<path style="fill:#f4dad7; stroke:none;" d="M345 128L345 131C345.696 129.446 345.696 129.554 345 128z"/>
<path style="fill:#eecbc9; stroke:none;" d="M48 131L48 134C48.6961 132.446 48.6961 132.554 48 131z"/>
<path style="fill:#e9b5af; stroke:none;" d="M345.333 131.667C345.278 131.722 345.222 132.778 345.667 132.333C345.722 132.278 345.778 131.222 345.333 131.667z"/>
<path style="fill:#de9289; stroke:none;" d="M347 131L347 134C347.696 132.446 347.696 132.554 347 131z"/>
<path style="fill:#eecbc9; stroke:none;" d="M51 133L51 136C51.6961 134.446 51.6961 134.554 51 133z"/>
<path style="fill:#de9289; stroke:none;" d="M345 133L345 136C345.696 134.446 345.696 134.554 345 133z"/>
<path style="fill:#eb5f5b; stroke:none;" d="M103 134L103 140L121 140L121 134L103 134z"/>
<path style="fill:#e9b5af; stroke:none;" d="M347.333 134.667C347.278 134.722 347.222 135.778 347.667 135.333C347.722 135.278 347.778 134.222 347.333 134.667z"/>
<path style="fill:#dd9893; stroke:none;" d="M51 136L51 139C51.6961 137.446 51.6961 137.554 51 136z"/>
<path style="fill:#f4dad7; stroke:none;" d="M347 136L347 139C347.696 137.446 347.696 137.554 347 136z"/>
<path style="fill:#cd665f; stroke:none;" d="M49.3333 137.667C49.2778 137.722 49.2223 138.778 49.6667 138.333C49.7222 138.278 49.7778 137.222 49.3333 137.667z"/>
<path style="fill:#f4dad7; stroke:none;" d="M344 138L344 141C344.696 139.446 344.696 139.554 344 138z"/>
<path style="fill:#dd9893; stroke:none;" d="M49 139L49 142C49.6961 140.446 49.6961 140.554 49 139z"/>
<path style="fill:#cd665f; stroke:none;" d="M51.3333 139.667C51.2778 139.722 51.2222 140.778 51.6667 140.333C51.7223 140.278 51.7778 139.222 51.3333 139.667z"/>
<path style="fill:#d33811; stroke:none;" d="M71 140L71 159L90 159L90 153L97 153L97 165L103 165L103 172L109 172L109 165L134 165L134 177L140 177L140 172L146 172L146 165L140 165L140 159L153 159L153 153L140 153L140 140L127 140L127 146L134 146L134 159L127 159L127 146L121 146L121 159L109 159L109 153L116 153L116 146L109 146L109 140L71 140z"/>
<path style="fill:#e9b5af; stroke:none;" d="M344.333 141.667C344.278 141.722 344.222 142.778 344.667 142.333C344.722 142.278 344.778 141.222 344.333 141.667z"/>
<path style="fill:#f2d8d6; stroke:none;" d="M49.3333 142.667C49.2778 142.722 49.2222 143.778 49.6667 143.333C49.7223 143.278 49.7778 142.222 49.3333 142.667z"/>
<path style="fill:#e9b5af; stroke:none;" d="M346 142L346 146C346.71 144.241 346.71 143.759 346 142z"/>
<path style="fill:#eecbc9; stroke:none;" d="M52 143L52 146C52.6961 144.446 52.6961 144.554 52 143z"/>
<path style="fill:#de9289; stroke:none;" d="M344.333 143.667C344.278 143.722 344.222 144.778 344.667 144.333C344.722 144.278 344.778 143.222 344.333 143.667z"/>
<path style="fill:#dd9893; stroke:none;" d="M52 146L52 149C52.6961 147.446 52.6961 147.554 52 146z"/>
<path style="fill:#b5151c; stroke:none;" d="M284 146L284 153L289 153L289 146L284 146z"/>
<path style="fill:#f4dad7; stroke:none;" d="M346.333 146.667C346.278 146.722 346.222 147.778 346.667 147.333C346.722 147.278 346.778 146.222 346.333 146.667z"/>
<path style="fill:#cd665f; stroke:none;" d="M50.3333 147.667C50.2777 147.722 50.2222 148.778 50.6667 148.333C50.7222 148.278 50.7778 147.222 50.3333 147.667z"/>
<path style="fill:#dd9893; stroke:none;" d="M50 149C50.4825 151.364 50.636 151.518 53 152C52.0275 150.73 51.2699 149.973 50 149z"/>
<path style="fill:#cd665f; stroke:none;" d="M52.3333 149.667C52.2777 149.722 52.2222 150.778 52.6667 150.333C52.7222 150.278 52.7778 149.222 52.3333 149.667z"/>
<path style="fill:#c12313; stroke:none;" d="M153 153L153 159L159 159L159 153L153 153z"/>
<path style="fill:#b5151c; stroke:none;" d="M159 153L159 159L165 159L165 153L159 153M246 153L246 159L239 159L239 165L233 165L233 172L239 172L239 165L246 165L246 172L252 172L252 153L246 153M165 159L165 165L172 165L172 159L165 159z"/>
<path style="fill:#ffffff; stroke:none;" d="M190 159L190 165L196 165L196 172L202 172L202 159L190 159z"/>
<path style="fill:#d33811; stroke:none;" d="M71 165L71 172L90 172L90 183L97 183L97 196L103 196L103 202L116 202L116 196L109 196L109 190L103 190L103 177L97 177L97 165L71 165M153 165L153 172L146 172L146 177L140 177L140 190L146 190L146 215L140 215L140 202L116 202L116 209L109 209L109 215L121 215L121 221L140 221L140 228L146 228L146 215L153 215L153 190L159 190L159 177L153 177L153 172L159 172L159 165L153 165z"/>
<path style="fill:#f1d4bd; stroke:none;" d="M349 166L350 167L349 166z"/>
<path style="fill:#e4ab7c; stroke:none;" d="M350 166L351 167L350 166z"/>
<path style="fill:#f1d4bd; stroke:none;" d="M351 166L352 167L351 166z"/>
<path style="fill:#d5792e; stroke:none;" d="M349 167L349 228C353.27 226.476 355.776 221.205 358.576 217.715C362.593 212.706 370.202 204.646 370.671 198C370.96 193.899 368.102 190.156 365.856 187.004C361.154 180.406 355.175 174.549 352 167L349 167z"/>
<path style="fill:#e4ab7c; stroke:none;" d="M352 169L353 170L352 169z"/>
<path style="fill:#f1d4bd; stroke:none;" d="M353 170L354 171L353 170z"/>
<path style="fill:#bf3229; stroke:none;" d="M48 171C42.2752 180.275 26.3093 192.964 29.4298 205C30.9961 211.041 36.5242 216.387 40.2909 221.17C43.3392 225.041 45.61 229.6 50 232L50 171L48 171z"/>
<path style="fill:#d3726c; stroke:none;" d="M47 172L48 173L47 172z"/>
<path style="fill:#d33811; stroke:none;" d="M109 172L109 177L116 177L116 172L109 172M121 172L121 190L116 190L116 183L109 183L109 190L116 190L116 196L127 196L127 190L134 190L134 183L127 183L127 172L121 172z"/>
<path style="fill:#e6b1ae; stroke:none;" d="M46 173L47 174L46 173z"/>
<path style="fill:#ecc3a2; stroke:none;" d="M355 173L356 174L355 173z"/>
<path style="fill:#de9793; stroke:none;" d="M44 176L45 177L44 176z"/>
<path style="fill:#e7b48a; stroke:none;" d="M357 176L358 177L357 176z"/>
<path style="fill:#d33811; stroke:none;" d="M165 177L165 190L177 190L177 196L183 196L183 190L177 190L177 183L172 183L172 177L165 177z"/>
<path style="fill:#ffffff; stroke:none;" d="M202 177L202 196L209 196L209 190L215 190L215 183L209 183L209 177L202 177M295 177L295 183L289 183L289 190L284 190L284 196L289 196L289 190L295 190L295 183L302 183L302 177L295 177z"/>
<path style="fill:#d77f79; stroke:none;" d="M42 179L43 180L42 179z"/>
<path style="fill:#e2a36f; stroke:none;" d="M359 179L360 180L359 179z"/>
<path style="fill:#eabebb; stroke:none;" d="M41 180L42 181L41 180z"/>
<path style="fill:#efccb0; stroke:none;" d="M360 180L361 181L360 180z"/>
<path style="fill:#cf655e; stroke:none;" d="M40 181L41 182L40 181z"/>
<path style="fill:#e2a4a0; stroke:none;" d="M39 182L40 183L39 182z"/>
<path style="fill:#e9bb95; stroke:none;" d="M362 182L363 183L362 182z"/>
<path style="fill:#eb5f5b; stroke:none;" d="M71 183L71 190L78 190L78 183L71 183z"/>
<path style="fill:#d33811; stroke:none;" d="M84 183L84 190L90 190L90 183L84 183z"/>
<path style="fill:#ffffff; stroke:none;" d="M146 183L146 190L153 190L153 183L146 183z"/>
<path style="fill:#bf2113; stroke:none;" d="M183 183L183 190L190 190L190 183L183 183z"/>
<path style="fill:#ffffff; stroke:none;" d="M271 183L271 190L265 190L265 196L252 196L252 202L258 202L258 209L265 209L265 215L289 215L289 221L284 221L284 228L277 228L277 252L289 252L289 246L302 246L302 239L295 239L295 233L302 233L302 228L321 228L321 221L314 221L314 215L308 215L308 209L314 209L314 202L321 202L321 196L314 196L314 190L308 190L308 183L302 183L302 190L295 190L295 202L289 202L289 209L271 209L271 202L284 202L284 196L277 196L277 190L284 190L284 183L271 183z"/>
<path style="fill:#db8c87; stroke:none;" d="M37 185L38 186L37 185z"/>
<path style="fill:#e4ab7c; stroke:none;" d="M364 185L365 186L364 185z"/>
<path style="fill:#eabebb; stroke:none;" d="M36 186L37 187L36 186z"/>
<path style="fill:#f1d4bd; stroke:none;" d="M365 186L366 187L365 186z"/>
<path style="fill:#d3726c; stroke:none;" d="M35 188L36 189L35 188z"/>
<path style="fill:#e2a4a0; stroke:none;" d="M34 189L35 190L34 189z"/>
<path style="fill:#ecc3a2; stroke:none;" d="M367 189L368 190L367 189z"/>
<path style="fill:#eb5f5b; stroke:none;" d="M78 190L78 196L71 196L71 202L78 202L78 215L71 215L71 233L78 233L78 239L71 239L71 252L78 252L78 258L90 258L90 271L97 271L97 265L103 265L103 271L109 271L109 265L121 265L121 289L127 289L127 295L134 295L134 284L127 284L127 277L134 277L134 271L127 271L127 265L134 265L134 258L140 258L140 246L134 246L134 239L127 239L127 246L134 246L134 252L127 252L127 246L109 246L109 252L116 252L116 258L109 258L109 252L103 252L103 239L116 239L116 233L97 233L97 215L90 215L90 209L84 209L84 202L90 202L90 196L84 196L84 190L78 190z"/>
<path style="fill:#dd472f; stroke:none;" d="M84 190L84 196L90 196L90 190L84 190z"/>
<path style="fill:#bc1e12; stroke:none;" d="M190 190L190 196L196 196L196 190L190 190z"/>
<path style="fill:#e69830; stroke:none;" d="M314 190L314 196L321 196L321 190L314 190z"/>
<path style="fill:#db8c87; stroke:none;" d="M32 192L33 193L32 192z"/>
<path style="fill:#e9bb95; stroke:none;" d="M369 192L370 193L369 192z"/>
<path style="fill:#eecbc9; stroke:none;" d="M31 193L32 194L31 193z"/>
<path style="fill:#ecc3a2; stroke:none;" d="M370 194L371 195L370 194z"/>
<path style="fill:#d3726c; stroke:none;" d="M30 195L31 196L30 195z"/>
<path style="fill:#eabebb; stroke:none;" d="M29 196L30 197L29 196z"/>
<path style="fill:#e2513f; stroke:none;" d="M90 196L90 202L97 202L97 196L90 196z"/>
<path style="fill:#d33811; stroke:none;" d="M165 196L165 209L159 209L159 221L172 221L172 215L183 215L183 221L190 221L190 215L183 215L183 209L172 209L172 196L165 196M183 196L183 209L190 209L190 202L196 202L196 196L183 196z"/>
<path style="fill:#e69830; stroke:none;" d="M321 196L321 202L314 202L314 209L308 209L308 215L321 215L321 209L327 209L327 196L321 196z"/>
<path style="fill:#efccb0; stroke:none;" d="M370 200L371 201L370 200z"/>
<path style="fill:#d33811; stroke:none;" d="M196 202L196 215L209 215L209 209L202 209L202 202L196 202z"/>
<path style="fill:#b30f1b; stroke:none;" d="M295 202L295 209L302 209L302 202L295 202z"/>
<path style="fill:#f1d4bd; stroke:none;" d="M369 202L370 203L369 202z"/>
<path style="fill:#e2a36f; stroke:none;" d="M368 203L369 204L368 203z"/>
<path style="fill:#de9793; stroke:none;" d="M29 206L30 207L29 206z"/>
<path style="fill:#e7b48a; stroke:none;" d="M366 206L367 207L366 206z"/>
<path style="fill:#e2a4a0; stroke:none;" d="M31 209L32 210L31 209z"/>
<path style="fill:#dc472d; stroke:none;" d="M103 209L103 215L109 215L109 209L103 209z"/>
<path style="fill:#ffffff; stroke:none;" d="M121 209L121 215L134 215L134 209L121 209M165 209L165 215L172 215L172 209L165 209z"/>
<path style="fill:#be2013; stroke:none;" d="M209 209L209 215L215 215L215 209L209 209z"/>
<path style="fill:#ecc3a2; stroke:none;" d="M364 209L365 210L364 209z"/>
<path style="fill:#cf655e; stroke:none;" d="M32 210L33 211L32 210z"/>
<path style="fill:#e2a36f; stroke:none;" d="M363 210L364 211L363 210z"/>
<path style="fill:#eabebb; stroke:none;" d="M33 212L34 213L33 212z"/>
<path style="fill:#f1d4bd; stroke:none;" d="M362 212L363 213L362 212z"/>
<path style="fill:#d77f79; stroke:none;" d="M34 213L35 214L34 213z"/>
<path style="fill:#e7b48a; stroke:none;" d="M361 213L362 214L361 213z"/>
<path style="fill:#eb5f5b; stroke:none;" d="M103 215L103 228L116 228L116 221L109 221L109 215L103 215z"/>
<path style="fill:#ffffff; stroke:none;" d="M109 215L109 221L121 221L121 215L109 215z"/>
<path style="fill:#e69830; stroke:none;" d="M209 215L209 221L202 221L202 246L209 246L209 239L215 239L215 252L221 252L221 246L228 246L228 239L233 239L233 233L228 233L228 228L215 228L215 215L209 215z"/>
<path style="fill:#ffffff; stroke:none;" d="M215 215L215 228L228 228L228 221L221 221L221 215L215 215z"/>
<path style="fill:#e69830; stroke:none;" d="M302 215L302 221L289 221L289 233L284 233L284 239L289 239L289 233L295 233L295 228L302 228L302 221L308 221L308 215L302 215z"/>
<path style="fill:#ffba53; stroke:none;" d="M314 215L314 221L321 221L321 228L327 228L327 215L314 215z"/>
<path style="fill:#de9793; stroke:none;" d="M36 216L37 217L36 216z"/>
<path style="fill:#ecc3a2; stroke:none;" d="M359 216L360 217L359 216z"/>
<path style="fill:#d3726c; stroke:none;" d="M39 219L40 220L39 219z"/>
<path style="fill:#e4ab7c; stroke:none;" d="M356 219L357 220L356 219z"/>
<path style="fill:#eecbc9; stroke:none;" d="M40 221L41 222L40 221z"/>
<path style="fill:#e2513f; stroke:none;" d="M116 221L116 228L121 228L121 221L116 221z"/>
<path style="fill:#d33811; stroke:none;" d="M153 221L153 233L159 233L159 258L172 258L172 246L165 246L165 233L172 233L172 246L183 246L183 233L177 233L177 228L159 228L159 221L153 221z"/>
<path style="fill:#d33610; stroke:none;" d="M196 221L196 228L202 228L202 221L196 221z"/>
<path style="fill:#db8c87; stroke:none;" d="M41 222L42 223L41 222z"/>
<path style="fill:#e9bb95; stroke:none;" d="M354 222L355 223L354 222z"/>
<path style="fill:#e2a4a0; stroke:none;" d="M43 225L44 226L43 225z"/>
<path style="fill:#efccb0; stroke:none;" d="M352 225L353 226L352 225z"/>
<path style="fill:#cf655e; stroke:none;" d="M44 226L45 227L44 226z"/>
<path style="fill:#eabebb; stroke:none;" d="M45 228L46 229L45 228z"/>
<path style="fill:#ffffff; stroke:none;" d="M78 228L78 233L84 233L84 239L90 239L90 228L78 228z"/>
<path style="fill:#dd482f; stroke:none;" d="M121 228L121 233L127 233L127 228L121 228z"/>
<path style="fill:#d33811; stroke:none;" d="M127 228L127 233L134 233L134 239L140 239L140 246L153 246L153 233L134 233L134 228L127 228z"/>
<path style="fill:#d33611; stroke:none;" d="M190 228L190 233L196 233L196 228L190 228z"/>
<path style="fill:#c84824; stroke:none;" d="M228 228L228 233L233 233L233 228L228 228z"/>
<path style="fill:#ffba53; stroke:none;" d="M302 228L302 233L295 233L295 239L302 239L302 246L289 246L289 252L277 252L277 265L284 265L284 271L271 271L271 277L252 277L252 284L258 284L258 289L265 289L265 284L271 284L271 302L295 302L295 308L289 308L289 314L295 314L295 321L308 321L308 327L321 327L321 314L327 314L327 308L321 308L321 302L327 302L327 289L321 289L321 284L327 284L327 265L321 265L321 258L314 258L314 252L308 252L308 233L321 233L321 228L302 228z"/>
<path style="fill:#f4ddca; stroke:none;" d="M349 228C350.248 228.685 350.548 228.749 352 229C350.752 228.315 350.452 228.251 349 228z"/>
<path style="fill:#d77f79; stroke:none;" d="M46 229L47 230L46 229M48 232L49 233L48 232z"/>
<path style="fill:#eabebb; stroke:none;" d="M49 232L50 233L49 232z"/>
<path style="fill:#dc472d; stroke:none;" d="M127 233L127 239L134 239L134 233L127 233z"/>
<path style="fill:#c84824; stroke:none;" d="M233 233L233 239L239 239L239 233L233 233z"/>
<path style="fill:#e69830; stroke:none;" d="M271 233L271 239L265 239L265 246L258 246L258 252L265 252L265 265L252 265L252 271L265 271L265 265L271 265L271 258L277 258L277 233L271 233z"/>
<path style="fill:#dd482f; stroke:none;" d="M134 239L134 246L140 246L140 239L134 239z"/>
<path style="fill:#c43f23; stroke:none;" d="M239 239L239 246L246 246L246 239L239 239z"/>
<path style="fill:#b5151c; stroke:none;" d="M246 239L246 246L252 246L252 239L246 239z"/>
<path style="fill:#ffffff; stroke:none;" d="M78 246L78 252L90 252L90 258L97 258L97 246L78 246z"/>
<path style="fill:#e25140; stroke:none;" d="M140 246L140 252L146 252L146 246L140 246z"/>
<path style="fill:#393c12; stroke:none;" d="M183 246L183 252L177 252L177 265L172 265L172 258L165 258L165 271L172 271L172 277L177 277L177 284L183 284L183 289L196 289L196 284L190 284L190 271L183 271L183 265L190 265L190 246L183 246z"/>
<path style="fill:#b27826; stroke:none;" d="M190 246L190 252L196 252L196 246L190 246z"/>
<path style="fill:#e69830; stroke:none;" d="M196 246L196 252L202 252L202 246L196 246M233 246L233 252L239 252L239 246L233 246z"/>
<path style="fill:#c53e23; stroke:none;" d="M246 246L246 252L252 252L252 246L246 246z"/>
<path style="fill:#ffba53; stroke:none;" d="M314 246L314 252L321 252L321 246L314 246z"/>
<path style="fill:#f0ba88; stroke:none;" d="M346 247L346 250C347.015 248.861 347.309 248.388 348 247L346 247z"/>
<path style="fill:#f5d0af; stroke:none;" d="M348 247L348 250C348.696 248.446 348.696 248.554 348 247z"/>
<path style="fill:#eca361; stroke:none;" d="M347 248C347.001 254.655 347.503 261.393 348.285 268C348.817 272.491 350.094 277.902 347.397 281.96C342.532 289.278 331.675 288.841 327 296C333.64 293.993 344.84 290.697 348.991 284.787C351.637 281.019 350.985 276.271 350.424 272C349.43 264.43 350.639 254.844 347 248z"/>
<path style="fill:#f5d0af; stroke:none;" d="M346 250L346 253C346.696 251.446 346.696 251.554 346 250z"/>
<path style="fill:#f0ba88; stroke:none;" d="M348.333 250.667C348.278 250.722 348.222 251.778 348.667 251.333C348.722 251.278 348.778 250.222 348.333 250.667z"/>
<path style="fill:#ddc2b7; stroke:none;" d="M52 251L52 255C52.7102 253.241 52.7102 252.759 52 251z"/>
<path style="fill:#bc8672; stroke:none;" d="M53 251C52.6717 258.646 51.705 266.404 50.7184 274C50.0791 278.921 49.0589 284.603 52.5139 288.787C56.7106 293.87 65.1191 295.6 71 298C67.3958 292.04 58.8234 292.291 54.4336 286.892C51.1087 282.803 52.1473 277.792 52.7145 273C53.5806 265.683 54.0746 258.322 55 251L53 251z"/>
<path style="fill:#c68429; stroke:none;" d="M196 252L196 258L202 258L202 252L196 252z"/>
<path style="fill:#e69830; stroke:none;" d="M209 252L209 265L215 265L215 252L209 252M246 252L246 258L239 258L239 265L252 265L252 258L258 258L258 252L246 252z"/>
<path style="fill:#ffffff; stroke:none;" d="M295 252L295 271L302 271L302 265L308 265L308 252L295 252z"/>
<path style="fill:#fae7d7; stroke:none;" d="M346 253L346 256C346.696 254.446 346.696 254.554 346 253z"/>
<path style="fill:#cca495; stroke:none;" d="M54.3333 254.667C54.2777 254.722 54.2222 255.778 54.6667 255.333C54.7222 255.278 54.7778 254.222 54.3333 254.667M52.3333 255.667C52.2777 255.722 52.2222 256.778 52.6667 256.333C52.7222 256.278 52.7778 255.222 52.3333 255.667z"/>
<path style="fill:#fae7d7; stroke:none;" d="M349.333 255.667C349.278 255.722 349.222 256.778 349.667 256.333C349.722 256.278 349.778 255.222 349.333 255.667z"/>
<path style="fill:#eee0db; stroke:none;" d="M54 256L54 261C54.8299 258.97 54.8299 258.03 54 256z"/>
<path style="fill:#f5d0af; stroke:none;" d="M349 257L349 260C349.696 258.446 349.696 258.554 349 257z"/>
<path style="fill:#eb5f5b; stroke:none;" d="M71 258L71 265L78 265L78 258L71 258M140 258L140 265L153 265L153 258L140 258z"/>
<path style="fill:#dc472d; stroke:none;" d="M153 258L153 265L159 265L159 258L153 258z"/>
<path style="fill:#c08129; stroke:none;" d="M202 258L202 265L209 265L209 258L202 258z"/>
<path style="fill:#e69830; stroke:none;" d="M228 258L228 271L233 271L233 277L239 277L239 265L233 265L233 258L228 258z"/>
<path style="fill:#f0ba88; stroke:none;" d="M347.333 258.667C347.278 258.722 347.222 259.778 347.667 259.333C347.722 259.278 347.778 258.222 347.333 258.667z"/>
<path style="fill:#eee0db; stroke:none;" d="M51.3333 260.667C51.2777 260.722 51.2222 261.778 51.6667 261.333C51.7222 261.278 51.7778 260.222 51.3333 260.667z"/>
<path style="fill:#f5d0af; stroke:none;" d="M347 260L347 263C347.696 261.446 347.696 261.554 347 260z"/>
<path style="fill:#f0ba88; stroke:none;" d="M349.333 260.667C349.278 260.722 349.222 261.778 349.667 261.333C349.722 261.278 349.778 260.222 349.333 260.667z"/>
<path style="fill:#ddc2b7; stroke:none;" d="M51 262L51 265C51.6961 263.446 51.6961 263.554 51 262z"/>
<path style="fill:#cca495; stroke:none;" d="M53 263L53 266C53.6961 264.446 53.6961 264.554 53 263z"/>
<path style="fill:#fae7d7; stroke:none;" d="M347 263L347 266C347.696 264.446 347.696 264.554 347 263z"/>
<path style="fill:#cca495; stroke:none;" d="M51 265L51 268C51.6961 266.446 51.6961 266.554 51 265z"/>
<path style="fill:#ee5f5b; stroke:none;" d="M153 265L153 271L140 271L140 284L146 284L146 277L153 277L153 271L159 271L159 265L153 265z"/>
<path style="fill:#393c12; stroke:none;" d="M196 265L196 284L209 284L209 289L215 289L215 284L221 284L221 277L209 277L209 265L196 265z"/>
<path style="fill:#c6842a; stroke:none;" d="M209 265L209 271L215 271L215 265L209 265z"/>
<path style="fill:#ffba53; stroke:none;" d="M265 265L265 271L271 271L271 265L265 265z"/>
<path style="fill:#fae7d7; stroke:none;" d="M350 265L350 268C350.696 266.446 350.696 266.554 350 265z"/>
<path style="fill:#ddc2b7; stroke:none;" d="M53 266L53 269C53.6961 267.446 53.6961 267.554 53 266z"/>
<path style="fill:#f5d0af; stroke:none;" d="M350 268L350 271C350.696 269.446 350.696 269.554 350 268z"/>
<path style="fill:#eee0db; stroke:none;" d="M53.3333 269.667C53.2778 269.722 53.2222 270.778 53.6667 270.333C53.7222 270.278 53.7778 269.222 53.3333 269.667z"/>
<path style="fill:#f0ba88; stroke:none;" d="M348.333 269.667C348.278 269.722 348.222 270.778 348.667 270.333C348.722 270.278 348.778 269.222 348.333 269.667z"/>
<path style="fill:#eee0db; stroke:none;" d="M50 270L50 273C50.6961 271.446 50.6961 271.554 50 270z"/>
<path style="fill:#eb5f5b; stroke:none;" d="M78 271L78 277L84 277L84 271L78 271M109 271L109 277L116 277L116 271L109 271z"/>
<path style="fill:#406560; stroke:none;" d="M153 271L153 284L140 284L140 289L153 289L153 284L159 284L159 295L165 295L165 302L153 302L153 295L146 295L146 302L140 302L140 308L146 308L146 321L140 321L140 327L153 327L153 308L159 308L159 314L183 314L183 321L177 321L177 327L202 327L202 308L196 308L196 302L183 302L183 295L177 295L177 289L172 289L172 277L165 277L165 271L153 271z"/>
<path style="fill:#3d5643; stroke:none;" d="M165 271L165 277L172 277L172 271L165 271z"/>
<path style="fill:#e69830; stroke:none;" d="M221 271L221 277L228 277L228 271L221 271z"/>
<path style="fill:#ffffff; stroke:none;" d="M314 271L314 277L302 277L302 284L314 284L314 277L321 277L321 271L314 271z"/>
<path style="fill:#f5d0af; stroke:none;" d="M348 271L348 274C348.696 272.446 348.696 272.554 348 271z"/>
<path style="fill:#f0ba88; stroke:none;" d="M350.333 271.667C350.278 271.722 350.222 272.778 350.667 272.333C350.722 272.278 350.778 271.222 350.333 271.667z"/>
<path style="fill:#ddc2b7; stroke:none;" d="M50 273L50 276C50.6961 274.446 50.6961 274.554 50 273z"/>
<path style="fill:#cca495; stroke:none;" d="M52.3333 274.667C52.2778 274.722 52.2222 275.778 52.6667 275.333C52.7223 275.278 52.7778 274.222 52.3333 274.667z"/>
<path style="fill:#fae7d7; stroke:none;" d="M348.333 274.667C348.278 274.722 348.222 275.778 348.667 275.333C348.722 275.278 348.778 274.222 348.333 274.667z"/>
<path style="fill:#ddc2b7; stroke:none;" d="M52.3333 276.667C52.2778 276.722 52.2222 277.778 52.6667 277.333C52.7223 277.278 52.7778 276.222 52.3333 276.667z"/>
<path style="fill:#fae7d7; stroke:none;" d="M351 276L351 281C351.83 278.969 351.83 278.031 351 276z"/>
<path style="fill:#ffffff; stroke:none;" d="M146 277L146 284L153 284L153 277L146 277M159 277L159 284L165 284L165 277L159 277z"/>
<path style="fill:#3c4d32; stroke:none;" d="M172 277L172 284L177 284L177 277L172 277z"/>
<path style="fill:#c68429; stroke:none;" d="M221 277L221 284L228 284L228 277L221 277z"/>
<path style="fill:#e69830; stroke:none;" d="M239 277L239 284L252 284L252 277L239 277z"/>
<path style="fill:#ffffff; stroke:none;" d="M277 277L277 295L295 295L295 277L277 277z"/>
<path style="fill:#eee0db; stroke:none;" d="M52 278L52 281C52.6961 279.446 52.6961 279.554 52 278M49 280L49 283C49.6961 281.446 49.6961 281.554 49 280z"/>
<path style="fill:#f3c59c; stroke:none;" d="M348.333 280.667C348.278 280.722 348.222 281.778 348.667 281.333C348.722 281.278 348.778 280.222 348.333 280.667z"/>
<path style="fill:#eee0db; stroke:none;" d="M52 282L52 285C52.6961 283.446 52.6961 283.554 52 282z"/>
<path style="fill:#eb5f5b; stroke:none;" d="M71 284L71 327L103 327L103 321L78 321L78 289L109 289L109 314L116 314L116 284L71 284z"/>
<path style="fill:#c08129; stroke:none;" d="M228 284L228 289L233 289L233 284L228 284z"/>
<path style="fill:#ffba53; stroke:none;" d="M284 284L284 289L289 289L289 284L284 284z"/>
<path style="fill:#d5b3a7; stroke:none;" d="M50 285L51 286L50 285z"/>
<path style="fill:#ddc2b7; stroke:none;" d="M53 286L54 287L53 286z"/>
<path style="fill:#f0ba88; stroke:none;" d="M340.667 287.333C340.222 287.778 341.278 287.722 341.333 287.667C341.778 287.222 340.722 287.278 340.667 287.333z"/>
<path style="fill:#d5b3a7; stroke:none;" d="M56 289L57 290L56 289z"/>
<path style="fill:#ffffff; stroke:none;" d="M78 289L78 321L109 321L109 289L78 289z"/>
<path style="fill:#406560; stroke:none;" d="M134 289L134 295L140 295L140 289L134 289z"/>
<path style="fill:#3b4d32; stroke:none;" d="M183 289L183 295L190 295L190 289L183 289z"/>
<path style="fill:#393c12; stroke:none;" d="M196 289L196 302L202 302L202 308L215 308L215 314L221 314L221 308L215 308L215 302L221 302L221 289L215 289L215 295L209 295L209 289L196 289z"/>
<path style="fill:#ffba53; stroke:none;" d="M239 289L239 295L246 295L246 289L239 289M252 289L252 295L258 295L258 289L252 289z"/>
<path style="fill:#ffffff; stroke:none;" d="M302 289L302 302L308 302L308 308L314 308L314 314L321 314L321 308L314 308L314 295L321 295L321 289L302 289z"/>
<path style="fill:#f5d0af; stroke:none;" d="M336 289L337 290L336 289z"/>
<path style="fill:#d5b3a7; stroke:none;" d="M58 290L59 291L58 290z"/>
<path style="fill:#d9bbb0; stroke:none;" d="M55 291L56 292L55 291z"/>
<path style="fill:#ddc2b7; stroke:none;" d="M57 292L58 293L57 292M59 293L60 294L59 293z"/>
<path style="fill:#e5d1c9; stroke:none;" d="M65 293L66 294L65 293z"/>
<path style="fill:#f5d0af; stroke:none;" d="M333 293L334 294L333 293z"/>
<path style="fill:#e5d1c9; stroke:none;" d="M61 294L62 295L61 294z"/>
<path style="fill:#d5b3a7; stroke:none;" d="M70 295L71 296L70 295z"/>
<path style="fill:#eb5f5b; stroke:none;" d="M84 295L84 314L103 314L103 295L84 295z"/>
<path style="fill:#406560; stroke:none;" d="M127 295L127 302L134 302L134 295L127 295z"/>
<path style="fill:#3d5643; stroke:none;" d="M190 295L190 302L196 302L196 295L190 295z"/>
<path style="fill:#393c11; stroke:none;" d="M228 295L228 302L233 302L233 295L228 295z"/>
<path style="fill:#406560; stroke:none;" d="M233 295L233 302L239 302L239 295L233 295z"/>
<path style="fill:#ffba53; stroke:none;" d="M246 295L246 302L252 302L252 308L258 308L258 314L271 314L271 308L258 308L258 302L252 302L252 295L246 295z"/>
<path style="fill:#d5b3a7; stroke:none;" d="M67 296L68 297L67 296z"/>
<path style="fill:#ddc2b7; stroke:none;" d="M69 297L70 298L69 297z"/>
<path style="fill:#406560; stroke:none;" d="M121 302L121 314L127 314L127 302L121 302z"/>
<path style="fill:#ffffff; stroke:none;" d="M165 302L165 308L177 308L177 302L165 302z"/>
<path style="fill:#3c4d32; stroke:none;" d="M196 302L196 308L202 308L202 302L196 302z"/>
<path style="fill:#d7ad52; stroke:none;" d="M246 302L246 308L252 308L252 302L246 302z"/>
<path style="fill:#3b4b30; stroke:none;" d="M202 308L202 314L209 314L209 308L202 308z"/>
<path style="fill:#ffffff; stroke:none;" d="M209 308L209 314L215 314L215 308L209 308z"/>
<path style="fill:#406560; stroke:none;" d="M228 308L228 321L221 321L221 314L215 314L215 327L233 327L233 314L239 314L239 308L228 308z"/>
<path style="fill:#d0a953; stroke:none;" d="M252 308L252 314L258 314L258 308L252 308z"/>
<path style="fill:#ffffff; stroke:none;" d="M295 308L295 314L302 314L302 308L295 308z"/>
<path style="fill:#406560; stroke:none;" d="M109 314L109 321L103 321L103 327L116 327L116 314L109 314M127 314L127 321L134 321L134 314L127 314z"/>
<path style="fill:#ffffff; stroke:none;" d="M190 314L190 321L196 321L196 314L190 314z"/>
<path style="fill:#3b4d32; stroke:none;" d="M209 314L209 321L215 321L215 314L209 314z"/>
<path style="fill:#406560; stroke:none;" d="M246 314L246 321L252 321L252 314L246 314z"/>
<path style="fill:#ffba53; stroke:none;" d="M284 314L284 321L271 321L271 327L289 327L289 314L284 314z"/>
<path style="fill:#406560; stroke:none;" d="M159 321L159 327L172 327L172 321L159 321M258 321L258 327L265 327L265 321L258 321z"/>
<path style="fill:#c5a452; stroke:none;" d="M265 321L265 327L271 327L271 321L265 321z"/>
<path style="fill:#b7c6c2; stroke:none;" d="M104 327L105 328L104 327z"/>
<path style="fill:#728e88; stroke:none;" d="M105 327C110.222 329.191 117.368 328 123 328C117.778 325.809 110.632 327 105 327z"/>
<path style="fill:#b7c6c2; stroke:none;" d="M123 327L124 328L123 327z"/>
<path style="fill:#edc081; stroke:none;" d="M276 327C281.959 329.5 290.564 328 297 328C291.041 325.5 282.436 327 276 327z"/>
<path style="fill:#436960; stroke:none;" d="M105 328C105.443 331.389 106.681 333.958 108.22 337C110.147 340.807 111.435 345.717 115.108 348.258C118.926 350.898 123.744 349.794 128 349.285C136.209 348.304 144.739 347.171 153 347C150.716 342.837 146.461 340.985 142.576 338.421C136.765 334.587 128.898 329.608 122 328.275C116.608 327.232 110.481 328 105 328z"/>
<path style="fill:#cfd9d6; stroke:none;" d="M124 328L125 329L124 328z"/>
<path style="fill:#e8ac57; stroke:none;" d="M250 345C257.977 345.342 266.074 346.252 274 347.282C278.904 347.919 284.516 348.933 288.61 345.347C293.276 341.261 294.911 333.595 297 328C290.354 328 282.476 326.84 276 328.418C270.765 329.694 264.602 333.267 260 336.068C256.16 338.404 251.489 340.609 250 345z"/>
<path style="fill:#8aa19c; stroke:none;" d="M125 329L126 330L125 329z"/>
<path style="fill:#a0b3ae; stroke:none;" d="M127 330L128 331L127 330z"/>
<path style="fill:#f3d5aa; stroke:none;" d="M271 330L272 331L271 330z"/>
<path style="fill:#c3cfcc; stroke:none;" d="M129 331L130 332L129 331z"/>
<path style="fill:#f3d5aa; stroke:none;" d="M295 331L296 332L295 331z"/>
<path style="fill:#cfd9d6; stroke:none;" d="M105 332L106 333L105 332z"/>
<path style="fill:#b7c6c2; stroke:none;" d="M106 333L107 334L106 333z"/>
<path style="fill:#acbcb8; stroke:none;" d="M134 333L135 334L134 333z"/>
<path style="fill:#f4dab4; stroke:none;" d="M264 333L265 334L264 333z"/>
<path style="fill:#cfd9d6; stroke:none;" d="M136 334L137 335L136 334z"/>
<path style="fill:#acbcb8; stroke:none;" d="M107 335L108 336L107 335z"/>
<path style="fill:#7e9892; stroke:none;" d="M137 335L138 336L137 335z"/>
<path style="fill:#a0b3ae; stroke:none;" d="M139 336L140 337L139 336z"/>
<path style="fill:#f2d0a1; stroke:none;" d="M259 336L260 337L259 336z"/>
<path style="fill:#a0b3ae; stroke:none;" d="M108 337L109 338L108 337z"/>
<path style="fill:#b7c6c2; stroke:none;" d="M141 337L142 338L141 337z"/>
<path style="fill:#8aa19c; stroke:none;" d="M109 339L110 340L109 339M143 339L144 340L143 339z"/>
<path style="fill:#a0b3ae; stroke:none;" d="M145 340L146 341L145 340z"/>
<path style="fill:#f3d5aa; stroke:none;" d="M253 340L254 341L253 340z"/>
<path style="fill:#7e9892; stroke:none;" d="M110 341L111 342L110 341z"/>
<path style="fill:#c3cfcc; stroke:none;" d="M147 341L148 342L147 341z"/>
<path style="fill:#cfd9d6; stroke:none;" d="M110 342L111 343L110 342z"/>
<path style="fill:#95aba6; stroke:none;" d="M150 343L151 344L150 343z"/>
<path style="fill:#c3cfcc; stroke:none;" d="M111 344L112 345L111 344z"/>
<path style="fill:#b7c6c2; stroke:none;" d="M152 344L153 345L152 344z"/>
<path style="fill:#f9ead4; stroke:none;" d="M251.667 345.333C251.222 345.778 252.278 345.722 252.333 345.667C252.778 345.222 251.722 345.278 251.667 345.333z"/>
<path style="fill:#f3d5aa; stroke:none;" d="M253 345C254.248 345.685 254.548 345.749 256 346C254.752 345.315 254.452 345.251 253 345z"/>
<path style="fill:#f9ead4; stroke:none;" d="M260 346C261.248 346.685 261.548 346.749 263 347C261.752 346.315 261.452 346.251 260 346z"/>
<path style="fill:#f3d5aa; stroke:none;" d="M263.667 346.333C263.222 346.778 264.278 346.722 264.333 346.667C264.778 346.222 263.722 346.278 263.667 346.333z"/>
<path style="fill:#edc081; stroke:none;" d="M265 346C266.248 346.685 266.548 346.749 268 347C266.752 346.315 266.452 346.251 265 346z"/>
<path style="fill:#f3d5aa; stroke:none;" d="M287 346L288 347L287 346z"/>
<path style="fill:#728e88; stroke:none;" d="M146 347C147.248 347.685 147.548 347.749 149 348C147.752 347.315 147.452 347.251 146 347z"/>
<path style="fill:#a0b3ae; stroke:none;" d="M149 347C150.248 347.685 150.548 347.749 152 348C150.752 347.315 150.452 347.251 149 347z"/>
<path style="fill:#f9ead4; stroke:none;" d="M271.667 347.333C271.222 347.778 272.278 347.722 272.333 347.667C272.778 347.222 271.722 347.278 271.667 347.333z"/>
<path style="fill:#f3d5aa; stroke:none;" d="M273 347C274.248 347.685 274.548 347.749 276 348C274.752 347.315 274.452 347.251 273 347z"/>
<path style="fill:#728e88; stroke:none;" d="M136 348C137.248 348.685 137.548 348.749 139 349C137.752 348.315 137.452 348.251 136 348z"/>
<path style="fill:#a0b3ae; stroke:none;" d="M139 348C140.248 348.685 140.548 348.749 142 349C140.752 348.315 140.452 348.251 139 348z"/>
<path style="fill:#f9ead4; stroke:none;" d="M280 348C281.248 348.685 281.548 348.749 283 349C281.752 348.315 281.452 348.251 280 348z"/>
<path style="fill:#b7c6c2; stroke:none;" d="M116 349L117 350L116 349z"/>
<path style="fill:#728e88; stroke:none;" d="M126.667 349.333C126.222 349.778 127.278 349.722 127.333 349.667C127.778 349.222 126.722 349.278 126.667 349.333z"/>
<path style="fill:#a0b3ae; stroke:none;" d="M128 349C129.248 349.685 129.548 349.749 131 350C129.752 349.315 129.452 349.251 128 349z"/>
<path style="fill:#cfd9d6; stroke:none;" d="M131 349C132.248 349.685 132.548 349.749 134 350C132.752 349.315 132.452 349.251 131 349M119 350C120.769 350.779 122.036 350.912 124 351C122.231 350.221 120.964 350.088 119 350z"/>
<path style="fill:#e8ad57; stroke:none;" d="M171 351C173.513 354.04 176.651 355.965 179.715 358.424C186.31 363.719 193.915 371.497 203 370.941C210.313 370.494 216.498 363.733 222 359.5C225.553 356.767 229.157 354.492 232 351C224.175 353.021 218.47 359.179 211.999 363.72C209.089 365.762 205.754 368.909 202 369.049C198.333 369.185 194.839 366.253 192 364.279C185.251 359.588 179.112 353.05 171 351z"/>
<path style="fill:#f4dab4; stroke:none;" d="M231 352L232 353L231 352z"/>
<path style="fill:#f3d5aa; stroke:none;" d="M177 353L178 354L177 353M224 354L225 355L224 354z"/>
<path style="fill:#f2d1a1; stroke:none;" d="M228 354L229 355L228 354z"/>
<path style="fill:#f4dab4; stroke:none;" d="M177 356L178 357L177 356M221 356L222 357L221 356M224 357L225 358L224 357z"/>
<path style="fill:#f2d1a1; stroke:none;" d="M180 358L181 359L180 358z"/>
<path style="fill:#f3d5aa; stroke:none;" d="M183 358L184 359L183 358z"/>
<path style="fill:#f2d1a1; stroke:none;" d="M218 359L219 360L218 359z"/>
<path style="fill:#f3d5aa; stroke:none;" d="M221 359L222 360L221 359z"/>
<path style="fill:#f4dab4; stroke:none;" d="M183 361L184 362L183 361z"/>
<path style="fill:#f3d5aa; stroke:none;" d="M215 361L216 362L215 361z"/>
<path style="fill:#f2d1a1; stroke:none;" d="M186 363L187 364L186 363M190 363L191 364L190 363z"/>
<path style="fill:#f4dab4; stroke:none;" d="M215 364L216 365L215 364M193 365L194 366L193 365z"/>
<path style="fill:#f3d5aa; stroke:none;" d="M208 366L209 367L208 366z"/>
<path style="fill:#f2d1a1; stroke:none;" d="M212 366L213 367L212 366z"/>
<path style="fill:#f3d5aa; stroke:none;" d="M193 368L194 369L193 368M205 368L206 369L205 368z"/>
<path style="fill:#f9ead4; stroke:none;" d="M200 369C201.248 369.685 201.548 369.749 203 370C201.752 369.315 201.452 369.251 200 369z"/>
<path style="fill:#f4dab4; stroke:none;" d="M208 369L209 370L208 369z"/>
<path style="fill:#f2d1a1; stroke:none;" d="M196 370L197 371L196 370z"/>
</svg>
